<svg width="62" height="37" viewBox="0 0 62 37" fill="none" xmlns="http://www.w3.org/2000/svg">
<defs>
<symbol id="awards_icon">
<path d="M37.3549 19.9654C37.7389 20.1282 38 20.4986 38 20.9157V21C38 21.5523 37.5523 22 37 22H25C24.4477 22 24 21.5523 24 21V20.947C24 20.5146 24.2816 20.1341 24.6855 19.9797C28.049 18.6937 28.5252 16.6728 28.8764 15.4137L33 15.4816C33.3489 16.6831 34.0502 18.5641 37.3549 19.9654Z"/>
<path d="M39 2.24414C39 5.97803 36.4673 13.1271 33 15.4816L28.8764 15.4137C25.4091 13.0592 23 5.97803 23 2.24414C23 -1.73978 22 0.794475 31 0.794475C40 0.794475 39 -1.73977 39 2.24414Z" />
<path d="M31.9106 9.89596C34.5394 12.3437 42 18.093 42 4.49999C42 2.23283 42.4393 1.35743 42.2243 1.14525C41.8708 0.796544 39.75 2.23922 31.0072 2.23922C22.2599 2.23922 20.1359 0.795081 19.7798 1.14578C19.5635 1.35889 20 2.23472 20 4.49999C20 17.9058 27.2659 12.4984 29.9911 9.99893C28.1913 10.1939 26.5365 10.6298 25.5 11C24 12 21.5 11 21.5 3L23 3.5H39L40.5 3C40.5 6.5 39.7 13 36.5 11C35.2182 10.1989 33.5727 9.90584 31.9106 9.89596Z"/>
<path d="M7.42094 36L6.93094 34.124H3.68294L3.17894 36H0.210938L3.47294 25.962H7.07094L10.3749 36H7.42094ZM5.93694 30.274C5.89027 30.0967 5.82494 29.8447 5.74094 29.518C5.65694 29.182 5.57294 28.8367 5.48894 28.482C5.40494 28.1273 5.3396 27.838 5.29294 27.614C5.2556 27.838 5.19494 28.118 5.11094 28.454C5.03627 28.79 4.95694 29.1213 4.87294 29.448C4.79827 29.7747 4.73294 30.05 4.67694 30.274L4.24294 31.912H6.37094L5.93694 30.274Z"/>
<path d="M24.1446 26.004L21.6806 36H18.4886L17.5366 31.646C17.5179 31.562 17.4899 31.422 17.4526 31.226C17.4153 31.03 17.3686 30.806 17.3126 30.554C17.2659 30.302 17.2239 30.0547 17.1866 29.812C17.1493 29.5693 17.1213 29.364 17.1026 29.196C17.0839 29.364 17.0513 29.5693 17.0046 29.812C16.9673 30.0547 16.9253 30.302 16.8786 30.554C16.8319 30.806 16.7853 31.03 16.7386 31.226C16.7013 31.422 16.6733 31.562 16.6546 31.646L15.6886 36H12.4966L10.0186 26.004H12.6226L13.7146 31.016C13.7426 31.1373 13.7799 31.3147 13.8266 31.548C13.8733 31.772 13.9199 32.0147 13.9666 32.276C14.0226 32.5373 14.0739 32.794 14.1206 33.046C14.1673 33.2887 14.1999 33.494 14.2186 33.662C14.2559 33.382 14.3026 33.06 14.3586 32.696C14.4239 32.332 14.4939 31.968 14.5686 31.604C14.6433 31.2307 14.7133 30.8853 14.7786 30.568C14.8533 30.2507 14.9139 29.9893 14.9606 29.784L15.8426 26.004H18.3486L19.2026 29.784C19.2493 29.98 19.3053 30.2413 19.3706 30.568C19.4453 30.8853 19.5199 31.2307 19.5946 31.604C19.6693 31.9773 19.7393 32.346 19.8046 32.71C19.8699 33.074 19.9166 33.3913 19.9446 33.662C19.9726 33.4287 20.0193 33.1393 20.0846 32.794C20.1499 32.4487 20.2153 32.1127 20.2806 31.786C20.3459 31.45 20.3973 31.198 20.4346 31.03L21.5406 26.004H24.1446Z"/>
<path d="M31.0049 36L30.5149 34.124H27.2669L26.7629 36H23.7949L27.0569 25.962H30.6549L33.9589 36H31.0049ZM29.5209 30.274C29.4743 30.0967 29.4089 29.8447 29.3249 29.518C29.2409 29.182 29.1569 28.8367 29.0729 28.482C28.9889 28.1273 28.9236 27.838 28.8769 27.614C28.8396 27.838 28.7789 28.118 28.6949 28.454C28.6203 28.79 28.5409 29.1213 28.4569 29.448C28.3823 29.7747 28.3169 30.05 28.2609 30.274L27.8269 31.912H29.9549L29.5209 30.274Z"/>
<path d="M38.3071 26.004C39.2125 26.004 39.9638 26.116 40.5611 26.34C41.1678 26.564 41.6205 26.8953 41.9191 27.334C42.2271 27.7633 42.3811 28.3047 42.3811 28.958C42.3811 29.3593 42.3111 29.728 42.1711 30.064C42.0405 30.4 41.8491 30.6987 41.5971 30.96C41.3451 31.2213 41.0418 31.45 40.6871 31.646L43.5991 36H40.5331L38.4191 32.36H37.7331V36H35.0311V26.004H38.3071ZM38.2651 28.048H37.7331V30.33H38.2371C38.5171 30.33 38.7598 30.2927 38.9651 30.218C39.1798 30.134 39.3478 30.0033 39.4691 29.826C39.5905 29.6393 39.6511 29.392 39.6511 29.084C39.6511 28.8693 39.6045 28.6873 39.5111 28.538C39.4178 28.3793 39.2685 28.258 39.0631 28.174C38.8578 28.09 38.5918 28.048 38.2651 28.048Z"/>
<path d="M52.9897 30.792C52.9897 31.9493 52.7704 32.9153 52.3317 33.69C51.9024 34.4647 51.2957 35.0433 50.5117 35.426C49.7277 35.8087 48.8037 36 47.7397 36H44.5057V26.004H47.9637C49.0371 26.004 49.9471 26.1907 50.6937 26.564C51.4404 26.928 52.0097 27.4647 52.4017 28.174C52.7937 28.8833 52.9897 29.756 52.9897 30.792ZM50.1897 30.89C50.1897 30.2833 50.1057 29.7793 49.9377 29.378C49.7791 28.9767 49.5364 28.678 49.2097 28.482C48.8924 28.286 48.4864 28.188 47.9917 28.188H47.2077V33.788H47.8097C48.6311 33.788 49.2331 33.55 49.6157 33.074C49.9984 32.598 50.1897 31.87 50.1897 30.89Z"/>
<path d="M61.325 32.962C61.325 33.5033 61.185 34.0167 60.905 34.502C60.6343 34.9873 60.2097 35.384 59.631 35.692C59.0617 35.9907 58.3197 36.14 57.405 36.14C56.9477 36.14 56.5463 36.1167 56.201 36.07C55.865 36.0327 55.5477 35.9673 55.249 35.874C54.9503 35.7807 54.6423 35.6593 54.325 35.51V33.102C54.8663 33.3727 55.4123 33.5827 55.963 33.732C56.5137 33.872 57.013 33.942 57.461 33.942C57.7317 33.942 57.951 33.9093 58.119 33.844C58.287 33.7787 58.413 33.69 58.497 33.578C58.581 33.466 58.623 33.34 58.623 33.2C58.623 33.0227 58.5623 32.8733 58.441 32.752C58.3197 32.6307 58.1283 32.5047 57.867 32.374C57.6057 32.2433 57.2557 32.08 56.817 31.884C56.4437 31.716 56.1076 31.5387 55.809 31.352C55.5103 31.1653 55.2537 30.9553 55.039 30.722C54.8337 30.4887 54.675 30.218 54.563 29.91C54.451 29.5927 54.395 29.2193 54.395 28.79C54.395 28.146 54.5536 27.6093 54.871 27.18C55.1883 26.7413 55.627 26.4147 56.187 26.2C56.7563 25.976 57.4143 25.864 58.161 25.864C58.8143 25.864 59.4023 25.9387 59.925 26.088C60.4477 26.228 60.9143 26.3913 61.325 26.578L60.499 28.664C60.0697 28.468 59.645 28.314 59.225 28.202C58.8143 28.0807 58.4317 28.02 58.077 28.02C57.8437 28.02 57.6523 28.048 57.503 28.104C57.3536 28.16 57.2417 28.2393 57.167 28.342C57.1017 28.4353 57.069 28.5427 57.069 28.664C57.069 28.8227 57.1297 28.9627 57.251 29.084C57.3723 29.2053 57.573 29.3407 57.853 29.49C58.1423 29.63 58.5343 29.812 59.029 30.036C59.5143 30.2507 59.925 30.4887 60.261 30.75C60.6063 31.002 60.8677 31.3053 61.045 31.66C61.2317 32.0053 61.325 32.4393 61.325 32.962Z" />
</symbol>
</defs>
</svg>
