<svg width="52" height="17" viewBox="0 0 52 17" fill="none" xmlns="http://www.w3.org/2000/svg">
<defs>
<symbol id="back_btn_img">
<path d="M22.368 3.004C23.7027 3.004 24.7107 3.19067 25.392 3.564C26.0733 3.93733 26.414 4.59533 26.414 5.538C26.414 6.10733 26.2787 6.588 26.008 6.98C25.7467 7.372 25.3687 7.61 24.874 7.694V7.764C25.21 7.82933 25.5133 7.946 25.784 8.114C26.0547 8.282 26.2693 8.52467 26.428 8.842C26.5867 9.15933 26.666 9.57933 26.666 10.102C26.666 11.0073 26.3393 11.7167 25.686 12.23C25.0327 12.7433 24.1367 13 22.998 13H19.26V3.004H22.368ZM22.606 6.966C23.222 6.966 23.6467 6.868 23.88 6.672C24.1227 6.476 24.244 6.19133 24.244 5.818C24.244 5.43533 24.104 5.16 23.824 4.992C23.544 4.824 23.1007 4.74 22.494 4.74H21.374V6.966H22.606ZM21.374 8.646V11.25H22.76C23.3947 11.25 23.838 11.1287 24.09 10.886C24.342 10.634 24.468 10.3027 24.468 9.892C24.468 9.51867 24.3373 9.22 24.076 8.996C23.824 8.76267 23.362 8.646 22.69 8.646H21.374Z" />
<path d="M31.6343 5.202C32.6609 5.202 33.4449 5.426 33.9863 5.874C34.5369 6.31267 34.8123 6.98933 34.8123 7.904V13H33.3563L32.9502 11.964H32.8942C32.5676 12.3747 32.2222 12.6733 31.8582 12.86C31.4942 13.0467 30.9949 13.14 30.3603 13.14C29.6789 13.14 29.1143 12.944 28.6663 12.552C28.2183 12.1507 27.9942 11.5393 27.9942 10.718C27.9942 9.906 28.2789 9.30867 28.8482 8.926C29.4176 8.534 30.2716 8.31933 31.4102 8.282L32.7402 8.24V7.904C32.7402 7.50267 32.6329 7.20867 32.4183 7.022C32.2129 6.83533 31.9236 6.742 31.5503 6.742C31.1769 6.742 30.8129 6.798 30.4583 6.91C30.1036 7.01267 29.7489 7.14333 29.3943 7.302L28.7083 5.888C29.1189 5.67333 29.5716 5.50533 30.0662 5.384C30.5702 5.26267 31.0929 5.202 31.6343 5.202ZM31.9282 9.486C31.2562 9.50467 30.7896 9.626 30.5282 9.85C30.2669 10.074 30.1362 10.368 30.1362 10.732C30.1362 11.0493 30.2296 11.278 30.4163 11.418C30.6029 11.5487 30.8456 11.614 31.1443 11.614C31.5923 11.614 31.9703 11.4833 32.2783 11.222C32.5863 10.9513 32.7402 10.5733 32.7402 10.088V9.458L31.9282 9.486Z"/>
<path d="M40.0555 13.14C38.9168 13.14 38.0348 12.8273 37.4095 12.202C36.7935 11.5673 36.4855 10.5733 36.4855 9.22C36.4855 8.28667 36.6441 7.526 36.9615 6.938C37.2788 6.35 37.7175 5.916 38.2775 5.636C38.8468 5.356 39.5001 5.216 40.2375 5.216C40.7601 5.216 41.2128 5.26733 41.5955 5.37C41.9875 5.47267 42.3281 5.594 42.6175 5.734L42.0015 7.344C41.6748 7.21333 41.3668 7.106 41.0775 7.022C40.7975 6.938 40.5175 6.896 40.2375 6.896C39.1548 6.896 38.6135 7.666 38.6135 9.206C38.6135 9.97133 38.7535 10.536 39.0335 10.9C39.3228 11.264 39.7241 11.446 40.2375 11.446C40.6761 11.446 41.0635 11.39 41.3995 11.278C41.7355 11.1567 42.0621 10.9933 42.3795 10.788V12.566C42.0621 12.7713 41.7261 12.916 41.3715 13C41.0261 13.0933 40.5875 13.14 40.0555 13.14Z"/>
<path d="M46.2249 7.12C46.2249 7.40933 46.2109 7.69867 46.1829 7.988C46.1642 8.268 46.1409 8.55267 46.1129 8.842H46.1409C46.2809 8.646 46.4255 8.45 46.5749 8.254C46.7242 8.04867 46.8829 7.85733 47.0509 7.68L49.1929 5.356H51.5449L48.5069 8.674L51.7269 13H49.3189L47.1209 9.906L46.2249 10.62V13H44.1389V2.36H46.2249V7.12Z"/>
<path d="M9.90182 1.50182L8.4 0L0 8.4L8.4 16.8L9.90182 15.2982L3.00364 8.4L9.90182 1.50182Z"/>
</symbol>
</defs>
</svg>
