<svg width="23" height="23" viewBox="0 0 23 23" fill="none" xmlns="http://www.w3.org/2000/svg">
<defs>
<symbol id="fb_icon" fill="white">
<path fill-rule="evenodd" clip-rule="evenodd" d="M23 11.5704C23 5.1801 17.8515 0 11.5014 0C5.14847 0.00143732 -1.52588e-05 5.1801 -1.52588e-05 11.5719C-1.52588e-05 17.3456 4.20558 22.1319 9.7019 23V14.9151H6.78414V11.5719H9.70477V9.02062C9.70477 6.12155 11.4224 4.52037 14.0484 4.52037C15.3074 4.52037 16.6226 4.74603 16.6226 4.74603V7.59193H15.1723C13.7451 7.59193 13.2995 8.4845 13.2995 9.40008V11.5704H16.4875L15.9787 14.9136H13.2981V22.9986C18.7944 22.1304 23 17.3441 23 11.5704Z"/>
</symbol>
</defs>
</svg>
