<svg width="42" height="37" viewBox="0 0 42 37" fill="none" xmlns="http://www.w3.org/2000/svg">
<defs>
<symbol id="game_icon">
<path d="M29.381 10.4762H27.8095V6.28571C27.8095 5.13333 26.8667 4.19048 25.7143 4.19048H21.5238V2.61905C21.5238 1.17333 20.3505 0 18.9048 0C17.459 0 16.2857 1.17333 16.2857 2.61905V4.19048H12.0952C10.9429 4.19048 10.0105 5.13333 10.0105 6.28571V10.2667H11.5714C13.1324 10.2667 14.4 11.5343 14.4 13.0952C14.4 14.6562 13.1324 15.9238 11.5714 15.9238H10V19.9048C10 21.0571 10.9429 22 12.0952 22H16.0762V20.4286C16.0762 18.8676 17.3438 17.6 18.9048 17.6C20.4657 17.6 21.7333 18.8676 21.7333 20.4286V22H25.7143C26.8667 22 27.8095 21.0571 27.8095 19.9048V15.7143H29.381C30.8267 15.7143 32 14.541 32 13.0952C32 11.6495 30.8267 10.4762 29.381 10.4762Z"/>
<path d="M5.22588 30.148H9.53788V35.538C9.02455 35.7153 8.43188 35.86 7.75988 35.972C7.09722 36.084 6.40188 36.14 5.67388 36.14C4.71255 36.14 3.86788 35.9533 3.13988 35.58C2.42122 35.2067 1.85655 34.6373 1.44588 33.872C1.04455 33.1067 0.843884 32.1407 0.843884 30.974C0.843884 29.9287 1.04455 29.0233 1.44588 28.258C1.84722 27.4927 2.43522 26.9047 3.20988 26.494C3.99388 26.074 4.95522 25.864 6.09388 25.864C6.71922 25.864 7.31188 25.9247 7.87188 26.046C8.43188 26.158 8.91722 26.3073 9.32788 26.494L8.47388 28.608C8.11922 28.4307 7.74588 28.3 7.35388 28.216C6.96188 28.1227 6.54655 28.076 6.10788 28.076C5.51055 28.076 5.02988 28.2113 4.66588 28.482C4.30188 28.7527 4.03588 29.112 3.86788 29.56C3.70922 30.008 3.62988 30.5027 3.62988 31.044C3.62988 31.66 3.71855 32.1827 3.89588 32.612C4.07322 33.0413 4.32988 33.368 4.66588 33.592C5.00188 33.8067 5.41255 33.914 5.89788 33.914C6.00988 33.914 6.13588 33.9093 6.27588 33.9C6.41588 33.8907 6.55122 33.8767 6.68188 33.858C6.82188 33.8393 6.92922 33.8207 7.00388 33.802V32.234H5.22588V30.148Z"/>
<path d="M17.7032 36L17.2132 34.124H13.9652L13.4612 36H10.4932L13.7552 25.962H17.3532L20.6572 36H17.7032ZM16.2192 30.274C16.1725 30.0967 16.1072 29.8447 16.0232 29.518C15.9392 29.182 15.8552 28.8367 15.7712 28.482C15.6872 28.1273 15.6218 27.838 15.5752 27.614C15.5378 27.838 15.4772 28.118 15.3932 28.454C15.3185 28.79 15.2392 29.1213 15.1552 29.448C15.0805 29.7747 15.0152 30.05 14.9592 30.274L14.5252 31.912H16.6532L16.2192 30.274Z"/>
<path d="M26.0834 36L24.0394 28.804H23.9834C24.002 28.9907 24.0207 29.2427 24.0394 29.56C24.058 29.8773 24.0767 30.2227 24.0954 30.596C24.114 30.96 24.1234 31.3147 24.1234 31.66V36H21.7294V26.004H25.3274L27.4134 33.102H27.4694L29.5134 26.004H33.1114V36H30.6334V31.618C30.6334 31.3007 30.638 30.9647 30.6474 30.61C30.6567 30.246 30.6707 29.9053 30.6894 29.588C30.708 29.2613 30.722 29.0047 30.7314 28.818H30.6754L28.6594 36H26.0834Z"/>
<path d="M41.2005 36H35.2645V26.004H41.2005V28.174H37.9665V29.742H40.9625V31.912H37.9665V33.802H41.2005V36Z"/>
</symbol>
</defs>
</svg>
