<svg width="42" height="37" viewBox="0 0 42 37" fill="none" xmlns="http://www.w3.org/2000/svg">
<defs>
<symbol id="home_icon">
<path d="M30 8.46524V20.4884C30 21.0407 29.5523 21.4884 29 21.4884H24.8333C24.281 21.4884 23.8333 21.0407 23.8333 20.4884V11.5C23.8333 10.9477 23.3856 10.5 22.8333 10.5H18.1667C17.6144 10.5 17.1667 10.9477 17.1667 11.5V20.4884C17.1667 21.0407 16.719 21.4884 16.1667 21.4884H12C11.4477 21.4884 11 21.0407 11 20.4884V8.46524C11 8.17026 11.1302 7.89033 11.3559 7.70033L19.2117 1.08486C19.9562 0.457959 21.0438 0.457959 21.7883 1.08486L29.6441 7.70033C29.8698 7.89033 30 8.17026 30 8.46524Z"/>
<path d="M9.09913 36H6.38313V31.926H3.24713V36H0.531128V26.004H3.24713V29.714H6.38313V26.004H9.09913V36Z" />
<path d="M20.6019 30.988C20.6019 31.7627 20.5085 32.4673 20.3219 33.102C20.1352 33.7273 19.8459 34.2687 19.4539 34.726C19.0619 35.1833 18.5579 35.5333 17.9419 35.776C17.3352 36.0187 16.6025 36.14 15.7439 36.14C14.9039 36.14 14.1759 36.0187 13.5599 35.776C12.9532 35.5333 12.4492 35.1833 12.0479 34.726C11.6559 34.2687 11.3619 33.7273 11.1659 33.102C10.9792 32.4673 10.8859 31.758 10.8859 30.974C10.8859 29.938 11.0585 29.0373 11.4039 28.272C11.7492 27.4973 12.2812 26.9 12.9999 26.48C13.7185 26.06 14.6379 25.85 15.7579 25.85C16.8965 25.85 17.8205 26.0647 18.5299 26.494C19.2485 26.914 19.7712 27.5113 20.0979 28.286C20.4339 29.0513 20.6019 29.952 20.6019 30.988ZM13.7279 30.988C13.7279 31.5853 13.7932 32.1033 13.9239 32.542C14.0639 32.9713 14.2832 33.3027 14.5819 33.536C14.8805 33.7693 15.2679 33.886 15.7439 33.886C16.2385 33.886 16.6305 33.7693 16.9199 33.536C17.2185 33.3027 17.4332 32.9713 17.5639 32.542C17.6945 32.1033 17.7599 31.5853 17.7599 30.988C17.7599 30.0827 17.6105 29.3687 17.3119 28.846C17.0132 28.3233 16.4952 28.062 15.7579 28.062C15.2725 28.062 14.8805 28.1833 14.5819 28.426C14.2832 28.6593 14.0639 28.9953 13.9239 29.434C13.7932 29.8633 13.7279 30.3813 13.7279 30.988Z" />
<path d="M26.7601 36L24.7161 28.804H24.6601C24.6788 28.9907 24.6975 29.2427 24.7161 29.56C24.7348 29.8773 24.7535 30.2227 24.7721 30.596C24.7908 30.96 24.8001 31.3147 24.8001 31.66V36H22.4061V26.004H26.0041L28.0901 33.102H28.1461L30.1901 26.004H33.7881V36H31.3101V31.618C31.3101 31.3007 31.3148 30.9647 31.3241 30.61C31.3335 30.246 31.3475 29.9053 31.3661 29.588C31.3848 29.2613 31.3988 29.0047 31.4081 28.818H31.3521L29.3361 36H26.7601Z"/>
<path d="M41.8773 36H35.9413V26.004H41.8773V28.174H38.6433V29.742H41.6393V31.912H38.6433V33.802H41.8773V36Z" />
</symbol>
</defs>
</svg>
