<svg width="49" height="37" viewBox="0 0 49 37" fill="none" xmlns="http://www.w3.org/2000/svg">
<defs>
<symbol id="hunts_icon">
<path fill-rule="evenodd" clip-rule="evenodd" d="M25.0735 21.1386C27.5313 17.9707 32.1714 11.5487 32.1714 8.21384C32.1714 3.67746 28.3274 0 23.5857 0C18.8439 0 15 3.67746 15 8.21384C15 11.5487 19.64 17.9707 22.0979 21.1386C22.861 22.122 24.3104 22.122 25.0735 21.1386ZM23.5857 13.2812C26.6678 13.2812 29.1664 10.934 29.1664 8.03862C29.1664 5.14321 26.6678 2.79602 23.5857 2.79602C20.5036 2.79602 18.005 5.14321 18.005 8.03862C18.005 10.934 20.5036 13.2812 23.5857 13.2812Z"/>
<path d="M22.1547 5.18709C22.1547 5.00224 22.3046 4.85239 22.4894 4.85239C22.6743 4.85239 22.8241 5.00224 22.8241 5.18709V5.18709C22.8241 5.20542 22.838 5.22078 22.8563 5.22263L25.3904 5.47929C25.9636 5.53735 26.3693 6.06647 26.2766 6.63508L26.2148 7.0143C26.1468 7.43181 25.8234 7.76134 25.4072 7.83721L23.6367 8.15999C23.1598 8.24692 22.814 8.66328 22.816 9.14796L22.8227 10.7558C22.8235 10.9408 22.6737 11.0912 22.4887 11.0912C22.3043 11.0912 22.1547 10.9416 22.1547 10.7572V5.18709Z"/>
<path d="M8.9751 36H6.2591V31.926H3.1231V36H0.407104V26.004H3.1231V29.714H6.2591V26.004H8.9751V36Z"/>
<path d="M19.6239 32.024C19.6239 32.864 19.4652 33.592 19.1479 34.208C18.8305 34.824 18.3499 35.3 17.7059 35.636C17.0712 35.972 16.2732 36.14 15.3119 36.14C13.9305 36.14 12.8759 35.79 12.1479 35.09C11.4292 34.3807 11.0699 33.3773 11.0699 32.08V26.004H13.7859V31.87C13.7859 32.5793 13.9165 33.0927 14.1779 33.41C14.4485 33.7273 14.8405 33.886 15.3539 33.886C15.7272 33.886 16.0259 33.816 16.2499 33.676C16.4832 33.536 16.6512 33.3167 16.7539 33.018C16.8659 32.7193 16.9219 32.332 16.9219 31.856V26.004H19.6239V32.024Z"/>
<path d="M31.2416 36H27.6996L24.0456 28.958H23.9896C24.0082 29.1167 24.0222 29.3033 24.0316 29.518C24.0502 29.7327 24.0642 29.9567 24.0736 30.19C24.0829 30.4233 24.0922 30.652 24.1016 30.876C24.1109 31.1 24.1156 31.3053 24.1156 31.492V36H21.7216V26.004H25.2496L28.8896 32.948H28.9316C28.9222 32.7893 28.9082 32.6073 28.8896 32.402C28.8802 32.1873 28.8709 31.9727 28.8616 31.758C28.8522 31.534 28.8429 31.3147 28.8336 31.1C28.8336 30.8853 28.8336 30.694 28.8336 30.526V26.004H31.2416V36Z"/>
<path d="M37.8073 36H35.1053V28.216H32.6693V26.004H40.2433V28.216H37.8073V36Z"/>
<path d="M48.2068 32.962C48.2068 33.5033 48.0668 34.0167 47.7868 34.502C47.5162 34.9873 47.0915 35.384 46.5128 35.692C45.9435 35.9907 45.2015 36.14 44.2868 36.14C43.8295 36.14 43.4282 36.1167 43.0828 36.07C42.7468 36.0327 42.4295 35.9673 42.1308 35.874C41.8322 35.7807 41.5242 35.6593 41.2068 35.51V33.102C41.7482 33.3727 42.2942 33.5827 42.8448 33.732C43.3955 33.872 43.8948 33.942 44.3428 33.942C44.6135 33.942 44.8328 33.9093 45.0008 33.844C45.1688 33.7787 45.2948 33.69 45.3788 33.578C45.4628 33.466 45.5048 33.34 45.5048 33.2C45.5048 33.0227 45.4442 32.8733 45.3228 32.752C45.2015 32.6307 45.0102 32.5047 44.7488 32.374C44.4875 32.2433 44.1375 32.08 43.6988 31.884C43.3255 31.716 42.9895 31.5387 42.6908 31.352C42.3922 31.1653 42.1355 30.9553 41.9208 30.722C41.7155 30.4887 41.5568 30.218 41.4448 29.91C41.3328 29.5927 41.2768 29.2193 41.2768 28.79C41.2768 28.146 41.4355 27.6093 41.7528 27.18C42.0702 26.7413 42.5088 26.4147 43.0688 26.2C43.6382 25.976 44.2962 25.864 45.0428 25.864C45.6962 25.864 46.2842 25.9387 46.8068 26.088C47.3295 26.228 47.7962 26.3913 48.2068 26.578L47.3808 28.664C46.9515 28.468 46.5268 28.314 46.1068 28.202C45.6962 28.0807 45.3135 28.02 44.9588 28.02C44.7255 28.02 44.5342 28.048 44.3848 28.104C44.2355 28.16 44.1235 28.2393 44.0488 28.342C43.9835 28.4353 43.9508 28.5427 43.9508 28.664C43.9508 28.8227 44.0115 28.9627 44.1328 29.084C44.2542 29.2053 44.4548 29.3407 44.7348 29.49C45.0242 29.63 45.4162 29.812 45.9108 30.036C46.3962 30.2507 46.8068 30.4887 47.1428 30.75C47.4882 31.002 47.7495 31.3053 47.9268 31.66C48.1135 32.0053 48.2068 32.4393 48.2068 32.962Z"/>
</symbol>
</defs>
</svg>
