<svg width="23" height="23" viewBox="0 0 23 23" fill="none" xmlns="http://www.w3.org/2000/svg">
<defs>
<symbol id="instagram_icon" fill="white">
<path d="M11.5 0C8.37917 0 7.98673 0.014375 6.76055 0.069C5.53436 0.1265 4.69917 0.319125 3.96748 0.60375C3.19999 0.892427 2.50482 1.34525 1.93055 1.93056C1.34559 2.50513 0.892826 3.20022 0.603735 3.9675C0.31911 4.69775 0.125047 5.53437 0.0689847 6.75625C0.0143597 7.98531 -1.52588e-05 8.37631 -1.52588e-05 11.5014C-1.52588e-05 14.6237 0.0143597 15.0147 0.0689847 16.2409C0.126485 17.4656 0.31911 18.3008 0.603735 19.0325C0.898422 19.7886 1.29086 20.4297 1.93055 21.0694C2.5688 21.7091 3.20992 22.103 3.96605 22.3962C4.69917 22.6809 5.53292 22.8749 6.75767 22.931C7.9853 22.9856 8.3763 23 11.5 23C14.6237 23 15.0132 22.9856 16.2409 22.931C17.4642 22.8735 18.3022 22.6809 19.0339 22.3962C19.8009 22.1074 20.4956 21.6546 21.0694 21.0694C21.7091 20.4297 22.1015 19.7886 22.3962 19.0325C22.6794 18.3008 22.8735 17.4656 22.931 16.2409C22.9856 15.0147 23 14.6237 23 11.5C23 8.37631 22.9856 7.98531 22.931 6.75769C22.8735 5.53438 22.6794 4.69775 22.3962 3.9675C22.1072 3.2002 21.6544 2.5051 21.0694 1.93056C20.4953 1.34503 19.8001 0.892178 19.0325 0.60375C18.2994 0.319125 17.4627 0.125062 16.2394 0.069C15.0118 0.014375 14.6222 0 11.4971 0H11.5014H11.5ZM10.4693 2.07287H11.5014C14.5719 2.07287 14.9356 2.08294 16.1474 2.139C17.2687 2.18931 17.8782 2.37762 18.2835 2.53431C18.8197 2.74275 19.2035 2.99287 19.606 3.39537C20.0085 3.79787 20.2572 4.18025 20.4657 4.71787C20.6238 5.12181 20.8107 5.73131 20.861 6.85256C20.917 8.06438 20.9285 8.42806 20.9285 11.4971C20.9285 14.5662 20.917 14.9313 20.861 16.1431C20.8107 17.2644 20.6224 17.8724 20.4657 18.2778C20.2813 18.7771 19.987 19.2286 19.6046 19.5989C19.2021 20.0014 18.8197 20.2501 18.2821 20.4585C17.8796 20.6166 17.2701 20.8035 16.1474 20.8552C14.9356 20.9099 14.5719 20.9228 11.5014 20.9228C8.43092 20.9228 8.0658 20.9099 6.85398 20.8552C5.73273 20.8035 5.12467 20.6166 4.7193 20.4585C4.21976 20.2744 3.76785 19.9806 3.3968 19.5989C3.01406 19.228 2.71934 18.7761 2.5343 18.2764C2.37761 17.8724 2.1893 17.2629 2.13898 16.1417C2.08436 14.9299 2.07286 14.5662 2.07286 11.4942C2.07286 8.42375 2.08436 8.0615 2.13898 6.84969C2.19073 5.72844 2.37761 5.11894 2.53573 4.71356C2.74417 4.17737 2.9943 3.79356 3.3968 3.39106C3.7993 2.98856 4.18167 2.73987 4.7193 2.53144C5.12467 2.37331 5.73273 2.18644 6.85398 2.13469C7.91486 2.08581 8.32598 2.07144 10.4693 2.07V2.07287ZM17.6395 3.98187C17.4583 3.98187 17.2789 4.01757 17.1114 4.08692C16.944 4.15627 16.7919 4.25792 16.6637 4.38607C16.5356 4.51421 16.4339 4.66634 16.3646 4.83377C16.2952 5.0012 16.2595 5.18065 16.2595 5.36187C16.2595 5.5431 16.2952 5.72255 16.3646 5.88998C16.4339 6.05741 16.5356 6.20954 16.6637 6.33768C16.7919 6.46583 16.944 6.56748 17.1114 6.63683C17.2789 6.70618 17.4583 6.74187 17.6395 6.74187C18.0055 6.74187 18.3566 6.59648 18.6154 6.33768C18.8742 6.07888 19.0195 5.72787 19.0195 5.36187C19.0195 4.99588 18.8742 4.64487 18.6154 4.38607C18.3566 4.12727 18.0055 3.98187 17.6395 3.98187ZM11.5014 5.59475C10.7181 5.58253 9.94014 5.72626 9.21289 6.01758C8.48564 6.30889 7.8236 6.74198 7.26533 7.29161C6.70705 7.84124 6.2637 8.49644 5.96107 9.21906C5.65844 9.94168 5.50259 10.7173 5.50259 11.5007C5.50259 12.2841 5.65844 13.0598 5.96107 13.7824C6.2637 14.505 6.70705 15.1602 7.26533 15.7098C7.8236 16.2595 8.48564 16.6925 9.21289 16.9839C9.94014 17.2752 10.7181 17.4189 11.5014 17.4067C13.0518 17.3825 14.5305 16.7496 15.6184 15.6447C16.7062 14.5397 17.316 13.0513 17.316 11.5007C17.316 9.95013 16.7062 8.46172 15.6184 7.35676C14.5305 6.25181 13.0518 5.61894 11.5014 5.59475ZM11.5014 7.66619C12.5182 7.66619 13.4934 8.07011 14.2123 8.78908C14.9313 9.50806 15.3352 10.4832 15.3352 11.5C15.3352 12.5168 14.9313 13.4919 14.2123 14.2109C13.4934 14.9299 12.5182 15.3338 11.5014 15.3338C10.4846 15.3338 9.50949 14.9299 8.79051 14.2109C8.07153 13.4919 7.66761 12.5168 7.66761 11.5C7.66761 10.4832 8.07153 9.50806 8.79051 8.78908C9.50949 8.07011 10.4846 7.66619 11.5014 7.66619Z"/>
</symbol>
</defs>
</svg>
