<svg width="17" height="26" viewBox="0 0 17 26" fill="none" xmlns="http://www.w3.org/2000/svg">
<defs>
<symbol id="to_top_icon">
<path d="M5.50781 22L5.22753 21.0225H5.11816C4.89485 21.3779 4.57812 21.6536 4.16796 21.8496C3.75781 22.041 3.29069 22.1367 2.7666 22.1367C1.86881 22.1367 1.19205 21.8975 0.736324 21.4189C0.280595 20.9359 0.0527301 20.2432 0.0527301 19.3408V14.3574H2.13769V18.8213C2.13769 19.3727 2.23567 19.7874 2.43164 20.0654C2.6276 20.3389 2.93977 20.4756 3.36816 20.4756C3.95149 20.4756 4.37304 20.2819 4.63281 19.8945C4.89257 19.5026 5.02246 18.8555 5.02246 17.9531V14.3574H7.10742V22H5.50781Z"/>
<path d="M13.4922 22.1367C12.5944 22.1367 11.8903 21.8109 11.3799 21.1592H11.2705C11.3434 21.7972 11.3799 22.1663 11.3799 22.2666V25.3633H9.29492V14.3574H10.9902L11.2842 15.3486H11.3799C11.8675 14.5921 12.5898 14.2139 13.5469 14.2139C14.4492 14.2139 15.1556 14.5625 15.666 15.2598C16.1764 15.957 16.4316 16.9255 16.4316 18.165C16.4316 18.9808 16.3109 19.6895 16.0693 20.291C15.8324 20.8926 15.4928 21.3506 15.0508 21.665C14.6087 21.9795 14.0892 22.1367 13.4922 22.1367ZM12.8769 15.8818C12.362 15.8818 11.986 16.0413 11.749 16.3604C11.512 16.6748 11.389 17.1966 11.3799 17.9258V18.1514C11.3799 18.9717 11.5006 19.5596 11.7422 19.915C11.9883 20.2705 12.3756 20.4482 12.9043 20.4482C13.8385 20.4482 14.3057 19.6781 14.3057 18.1377C14.3057 17.3857 14.1894 16.8229 13.957 16.4492C13.7292 16.071 13.3691 15.8818 12.8769 15.8818Z"/>
<path d="M15.2982 9.90182L16.8 8.4L8.40005 0L4.57764e-05 8.4L1.50186 9.90182L8.40005 3.00364L15.2982 9.90182Z"/>
</symbol>
</defs>
</svg>
