<svg width="26" height="23" viewBox="0 0 26 23" fill="none" xmlns="http://www.w3.org/2000/svg">
<defs>
<symbol id="twitter_icon" fill="white">
<path d="M8.16724 23C17.979 23 23.3464 14.149 23.3464 6.48688C23.3464 6.2392 23.3464 5.98798 23.3366 5.7403C24.3816 4.91675 25.2835 3.89713 26 2.72923C25.0239 3.19779 23.9895 3.5066 22.9304 3.64565C24.046 2.91966 24.8815 1.77738 25.2817 0.431126C24.2336 1.10716 23.0864 1.58173 21.8904 1.83405C21.0863 0.901759 20.0223 0.284142 18.8631 0.0768701C17.704 -0.130402 16.5144 0.0842367 15.4787 0.68754C14.4429 1.29084 13.6188 2.24914 13.134 3.414C12.6491 4.57885 12.5307 5.88525 12.7969 7.13085C10.6758 7.01506 8.60081 6.41517 6.70643 5.3701C4.81205 4.32503 3.1406 2.8581 1.80048 1.06448C1.12016 2.34371 0.912542 3.85688 1.21978 5.29672C1.52703 6.73656 2.3261 7.99512 3.45473 8.81683C2.60899 8.78555 1.78183 8.5383 1.03998 8.09502V8.17464C1.04144 9.51472 1.46786 10.8132 2.24715 11.8505C3.02645 12.8878 4.11083 13.6004 5.31699 13.8677C4.85916 14.005 4.38623 14.0735 3.91136 14.0712C3.57658 14.0723 3.24248 14.0385 2.91361 13.9703C3.25451 15.1239 3.9183 16.1325 4.81201 16.8549C5.70572 17.5772 6.78458 17.9772 7.89749 17.9986C6.00689 19.6153 3.67151 20.4921 1.26748 20.4878C0.843881 20.4898 0.420572 20.4632 -1.52588e-05 20.4082C2.43995 22.1017 5.27359 23.001 8.16724 23Z"/>
</symbol>
</defs>
</svg>
